<svg aria-hidden="true" style="position:absolute;width:0;height:0" xmlns="http://www.w3.org/2000/svg" overflow="hidden"><defs><symbol id="Group-30" viewBox="0 0 32 32"><path fill="var(--color1, #3fa9f5)" d="M22.326 11.535h-3.349v-.744c0-1.026-.835-1.86-1.86-1.86h-2.233c-1.026 0-1.86.835-1.86 1.86v.744H9.675c-1.026 0-1.86.835-1.86 1.86v7.07c0 1.026.835 1.86 1.86 1.86h12.651c1.026 0 1.86-.835 1.86-1.86v-7.07c0-1.026-.835-1.86-1.86-1.86zm-8.559-.744c0-.615.501-1.116 1.116-1.116h2.233c.615 0 1.116.501 1.116 1.116v.744h-4.465v-.744zm9.675 9.674c0 .615-.501 1.116-1.116 1.116H9.675a1.118 1.118 0 01-1.116-1.116v-7.07c0-.615.501-1.116 1.116-1.116h12.651c.615 0 1.116.501 1.116 1.116v7.07z"/><path fill="var(--color1, #3fa9f5)" d="M13.023 17.488h-.744v2.977h.744v-2.977zm2.233-1.116h-.744v4.093h.744v-4.093zm2.232-1.116h-.744v5.209h.744v-5.209zm2.233-1.116h-.744v6.326h.744V14.14z"/><path fill="none" stroke="var(--color1, #3fa9f5)" stroke-miterlimit="10" stroke-width=".372" d="M5.72 27.766A15.562 15.562 0 0016 31.628c8.631 0 15.628-6.998 15.628-15.628 0-3.938-1.459-7.532-3.862-10.28"/><path fill="none" stroke="var(--color2, #70cf29)" stroke-miterlimit="10" stroke-width=".372" d="M26.18 4.148A15.558 15.558 0 0016 .372C7.369.372.372 7.369.372 16c0 3.89 1.424 7.446 3.776 10.18"/></symbol><symbol id="Group-38" viewBox="0 0 32 32"><path fill="none" stroke="var(--color2, #70cf29)" stroke-miterlimit="10" stroke-width=".372" d="M26.18 4.148A15.564 15.564 0 0016 .372C7.369.372.372 7.369.372 16c0 3.89 1.424 7.445 3.776 10.18"/><path fill="none" stroke="var(--color1, #3fa9f5)" stroke-miterlimit="10" stroke-width=".372" d="M5.72 27.766A15.562 15.562 0 0016 31.628c8.631 0 15.628-6.997 15.628-15.628a15.56 15.56 0 00-3.862-10.279"/><path fill="var(--color1, #3fa9f5)" d="M16.372 14.14h4.458l3.261-2.893-3.268-2.688h-4.45V7.443h-.744v1.116H9.303v5.581h6.326V16h-3.773l-3.261 2.886 3.268 2.696h3.766v2.605h-3.721v.744h8.558v-.744h-4.093v-2.605h6.698v-5.581h-6.698v-1.86zm-6.326-4.838h10.509l2.39 1.965-2.398 2.128h-10.5V9.302zm12.28 7.442v4.093H12.131L9.74 18.865l2.397-2.121h10.189z"/></symbol><symbol id="Group-39" viewBox="0 0 32 32"><path fill="none" stroke="var(--color2, #70cf29)" stroke-miterlimit="10" stroke-width=".372" d="M26.18 4.148A15.564 15.564 0 0016 .372C7.369.372.372 7.369.372 16c0 3.89 1.424 7.445 3.776 10.18"/><path fill="none" stroke="var(--color1, #3fa9f5)" stroke-miterlimit="10" stroke-width=".372" d="M5.72 27.766A15.562 15.562 0 0016 31.628c8.631 0 15.628-6.997 15.628-15.628a15.56 15.56 0 00-3.862-10.279"/><path fill="var(--color1, #3fa9f5)" d="M23.245 8.93H9.127c-.898 0-1.685.859-1.685 1.838v9.193c0 .908.74 1.62 1.685 1.62h.919v3.826l4.151-3.826h9.047c.945 0 1.685-.711 1.685-1.62v-9.193c0-.979-.787-1.838-1.685-1.838zm.941 11.032c0 .499-.404.876-.941.876h-9.338l-3.116 2.872v-2.872H9.127c-.537 0-.941-.377-.941-.876v-9.193c0-.552.466-1.094.941-1.094h14.118c.475 0 .941.542.941 1.094v9.193z"/><path fill="var(--color1, #3fa9f5)" d="M15.963 11.303c-2.229 0-4.043 1.807-4.043 4.029s1.814 4.028 4.043 4.028 4.042-1.807 4.042-4.029-1.813-4.028-4.042-4.028zm3.263 3.581h-1.545c-.045-.991-.237-1.951-.568-2.627a3.297 3.297 0 012.114 2.627zm-3.263 3.677c-.314 0-.911-1.034-.979-2.933h1.957c-.068 1.9-.665 2.933-.978 2.933zm-.975-3.677c.086-1.835.667-2.831.975-2.831.307 0 .889.996.974 2.831h-1.949zm-.175-2.627c-.331.676-.524 1.635-.569 2.627H12.7a3.292 3.292 0 012.114-2.627zm-2.134 3.371h1.561c.038 1.059.243 2.089.605 2.79a3.293 3.293 0 01-2.166-2.79zm4.401 2.79c.362-.7.567-1.731.605-2.79h1.561a3.289 3.289 0 01-2.166 2.79z"/></symbol><symbol id="Group-40" viewBox="0 0 32 32"><path fill="none" stroke="var(--color2, #70cf29)" stroke-miterlimit="10" stroke-width=".34" d="M25.314 3.795A14.24 14.24 0 0016 .34C8.103.34 1.702 6.741 1.702 14.638c0 3.559 1.303 6.812 3.455 9.314"/><path fill="none" stroke="var(--color1, #3fa9f5)" stroke-miterlimit="10" stroke-width=".34" d="M6.595 25.403A14.241 14.241 0 0016 28.936c7.896 0 14.298-6.401 14.298-14.298 0-3.602-1.335-6.891-3.533-9.405"/><path fill="var(--color1, #3fa9f5)" d="M23.63 13.957l-1.702-1.702h-1.021l-1.702-1.702h-5.588V6.808h-2.043v3.745H9.531v1.702H8.51v1.702H6.693l1.903 6.468h14.44l2.663-6.468H23.63zM12.255 7.489h.681v3.064h-.681V7.489zm-2.042 3.745h8.71l1.021 1.021h-9.731v-1.021zm-1.022 1.702h12.455l1.021 1.021H9.191v-1.021zm13.389 6.809H9.105l-1.502-5.106h17.079l-2.103 5.106z"/><path fill="var(--color1, #3fa9f5)" d="M11.574 15.83c-.751 0-1.362.611-1.362 1.362s.611 1.362 1.362 1.362 1.362-.611 1.362-1.362-.611-1.362-1.362-1.362zm0 2.042a.681.681 0 110-1.362.681.681 0 010 1.362zM16 15.83c-.751 0-1.362.611-1.362 1.362s.611 1.362 1.362 1.362 1.362-.611 1.362-1.362S16.751 15.83 16 15.83zm0 2.042a.681.681 0 110-1.362.681.681 0 010 1.362zm4.426-2.042c-.751 0-1.362.611-1.362 1.362s.611 1.362 1.362 1.362 1.362-.611 1.362-1.362-.611-1.362-1.362-1.362zm0 2.042a.682.682 0 11.002-1.364.682.682 0 01-.002 1.364z"/></symbol><symbol id="Group-41" viewBox="0 0 32 32"><path fill="none" stroke="var(--color2, #70cf29)" stroke-miterlimit="10" stroke-width=".372" d="M26.18 4.148A15.558 15.558 0 0016 .372C7.369.372.372 7.369.372 16c0 3.89 1.424 7.446 3.776 10.18"/><path fill="none" stroke="var(--color1, #3fa9f5)" stroke-miterlimit="10" stroke-width=".372" d="M5.72 27.766A15.562 15.562 0 0016 31.628c8.631 0 15.628-6.998 15.628-15.628 0-3.938-1.459-7.532-3.862-10.28"/><path fill="var(--color1, #3fa9f5)" d="M19.642 16.098c.395.303.843.646 1.567.646.642 0 1.088-.329 1.483-.618.364-.267.678-.498 1.122-.498.434 0 .733.224 1.079.484.396.297.844.633 1.526.633v-.744c-.434 0-.733-.224-1.079-.484-.396-.297-.844-.633-1.526-.633-.688 0-1.153.341-1.562.643-.346.254-.645.474-1.042.474-.471 0-.769-.228-1.114-.493-.306-.234-.647-.491-1.118-.585v-2.309a1.865 1.865 0 001.488-1.822c0-1.026-.835-1.86-1.86-1.86s-1.86.835-1.86 1.86a1.864 1.864 0 001.476 1.82l.012.002v2.309c-.481.094-.835.355-1.154.594-.346.259-.645.484-1.079.484s-.733-.224-1.079-.484c-.396-.297-.844-.633-1.526-.633s-1.131.336-1.526.633c-.346.259-.646.484-1.079.484-.437 0-.741-.226-1.092-.488-.396-.295-.845-.628-1.516-.628-.696 0-1.149.34-1.544.64-.337.255-.684.476-1.056.476v.744c.744 0 1.119-.333 1.506-.628.346-.262.653-.489 1.098-.489.424 0 .723.223 1.069.481.399.298.852.635 1.535.635.682 0 1.13-.336 1.526-.633.346-.259.645-.484 1.079-.484s.733.224 1.079.484c.396.297.844.633 1.526.633s1.13-.336 1.526-.633c.237-.178.455-.333.707-.418v1.833c-.481.094-.835.355-1.154.594-.346.259-.645.484-1.079.484s-.733-.224-1.079-.484c-.396-.297-.844-.633-1.526-.633s-1.131.336-1.526.633c-.346.259-.646.484-1.079.484-.437 0-.741-.226-1.092-.488-.396-.295-.845-.628-1.516-.628-.696 0-1.149.34-1.544.64-.337.255-.684.476-1.056.476v.744c.744 0 1.119-.333 1.506-.628.346-.262.653-.489 1.098-.489.424 0 .723.223 1.069.481.399.298.852.635 1.535.635.682 0 1.13-.336 1.526-.633.346-.259.645-.484 1.079-.484s.733.224 1.079.484c.396.297.844.633 1.526.633s1.13-.336 1.526-.633c.237-.178.455-.333.707-.418v4.771c0 1.436-1.168 2.605-2.605 2.605s-2.605-1.169-2.605-2.605v-.962l1.597 1.597.526-.526-2.868-2.868v2.759c0 1.847 1.502 3.349 3.349 3.349s3.349-1.502 3.349-3.349v-4.77c.234.08.435.226.666.403.395.303.843.646 1.567.646.642 0 1.088-.329 1.483-.618.364-.267.678-.498 1.122-.498.434 0 .733.224 1.079.484.396.297.844.633 1.526.633v-.744c-.434 0-.733-.224-1.079-.484-.396-.297-.844-.633-1.526-.633-.688 0-1.153.341-1.562.643-.346.254-.645.474-1.042.474-.471 0-.769-.228-1.114-.493-.306-.234-.647-.491-1.118-.585v-1.832c.234.08.435.226.666.403zm-2.154-5.307c0-.615.501-1.116 1.116-1.116s1.116.501 1.116 1.116-.501 1.116-1.116 1.116-1.116-.501-1.116-1.116zm1.489-4.837h-.744v2.977h.744V5.954z"/></symbol><symbol id="Group-42" viewBox="0 0 32 32"><path fill="none" stroke="var(--color2, #70cf29)" stroke-miterlimit="10" stroke-width=".372" d="M26.18 4.148A15.558 15.558 0 0016 .372C7.369.372.372 7.369.372 16c0 3.89 1.424 7.446 3.776 10.18"/><path fill="none" stroke="var(--color1, #3fa9f5)" stroke-miterlimit="10" stroke-width=".372" d="M5.72 27.766A15.562 15.562 0 0016 31.628c8.631 0 15.628-6.998 15.628-15.628 0-3.938-1.459-7.532-3.862-10.28"/><path fill="var(--color1, #3fa9f5)" d="M23.814 10.046a2.608 2.608 0 00-2.605-2.605H10.418a2.608 2.608 0 00-2.605 2.605v12.651h2.233v1.488h.744v-1.488h10.046v1.488h.744v-1.488h2.233V10.046zm-5.801 6.326c-.178-1.054-1.095-1.86-2.199-1.86s-2.021.806-2.199 1.86H8.558v-5.954H23.07v5.954h-5.057zm-.763 0h-2.871c.166-.64.744-1.116 1.436-1.116s1.269.476 1.436 1.116zm-6.831-8.186H21.21a1.865 1.865 0 011.821 1.476l.002.012H8.597a1.866 1.866 0 011.823-1.488zM8.558 21.953v-4.837H23.07v4.837H8.558z"/><path fill="var(--color1, #3fa9f5)" d="M11.349 17.86a1.676 1.676 0 00-1.674 1.674c0 .923.751 1.674 1.674 1.674s1.674-.751 1.674-1.674-.751-1.674-1.674-1.674zm0 2.605a.93.93 0 01-.93-.93c0-.513.418-.93.93-.93s.93.417.93.93-.418.93-.93.93zm8.93-2.605a1.676 1.676 0 00-1.674 1.674c0 .923.751 1.674 1.674 1.674s1.674-.751 1.674-1.674-.751-1.674-1.674-1.674zm0 2.605a.93.93 0 01-.93-.93c0-.513.418-.93.93-.93s.93.417.93.93-.418.93-.93.93z"/></symbol><symbol id="Group-44" viewBox="0 0 32 32"><path fill="none" stroke="var(--color2, #70cf29)" stroke-miterlimit="10" stroke-width=".372" d="M26.18 4.148A15.558 15.558 0 0016 .372C7.369.372.372 7.369.372 16c0 3.89 1.424 7.446 3.776 10.18"/><path fill="none" stroke="var(--color1, #3fa9f5)" stroke-miterlimit="10" stroke-width=".372" d="M5.72 27.766A15.562 15.562 0 0016 31.628c8.631 0 15.628-6.998 15.628-15.628 0-3.938-1.459-7.532-3.862-10.28"/><path fill="var(--color1, #3fa9f5)" d="M14.838 14.54c1.901 0 3.448-1.546 3.448-3.447s-1.546-3.447-3.448-3.447-3.448 1.546-3.448 3.447a3.451 3.451 0 003.448 3.447zm0-6.15c1.491 0 2.704 1.213 2.704 2.703s-1.213 2.703-2.704 2.703-2.704-1.213-2.704-2.703 1.213-2.703 2.704-2.703zM16 21.581H9.686c.179-2.765 2.347-4.879 5.082-4.879 1.011 0 1.822.201 2.551.631l.378-.641c-.849-.501-1.779-.734-2.929-.734-3.274 0-5.838 2.634-5.838 5.996v.372H16v-.744zm9.201 2.984l-2.151-2.63c.246-.422.391-.929.391-1.469 0-1.641-1.336-2.977-2.977-2.977s-2.977 1.335-2.977 2.977c0 .535.144 1.036.391 1.469l-2.151 2.63a.372.372 0 00-.046.399l-.001-.002c.059.125.184.21.329.21h.012-.001l1.458-.021.518 1.353a.372.372 0 00.324.238l.023.001a.375.375 0 00.329-.197l1.654-3.11c.045.002.09.007.137.007s.091-.005.137-.007l1.654 3.11a.373.373 0 00.329.197l.023-.001a.373.373 0 00.324-.236l.001-.003.518-1.353 1.458.021h.014a.357.357 0 00.325-.208l.001-.002a.37.37 0 00-.048-.397v.001zm-6.8.91l-.319-.832a.35.35 0 00-.353-.239l-.918.013 1.529-1.87c.33.337.739.596 1.196.747l.021.006-1.157 2.175zm-.168-5.01c0-1.231 1.001-2.233 2.233-2.233s2.233 1.001 2.233 2.233-1.001 2.233-2.233 2.233a2.235 2.235 0 01-2.233-2.233zm4.968 3.938h-.006a.371.371 0 00-.346.237l-.001.003-.319.832-1.156-2.175a2.997 2.997 0 001.216-.752v-.001l1.53 1.87-.919-.013z"/></symbol><symbol id="Group-37" viewBox="0 0 32 32"><path fill="none" stroke="var(--color2, #70cf29)" stroke-miterlimit="10" stroke-width=".372" d="M26.18 4.148A15.564 15.564 0 0016 .372C7.369.372.372 7.369.372 16c0 3.89 1.424 7.445 3.776 10.18"/><path fill="none" stroke="var(--color1, #3fa9f5)" stroke-miterlimit="10" stroke-width=".372" d="M5.72 27.766A15.562 15.562 0 0016 31.628c8.631 0 15.628-6.997 15.628-15.628a15.56 15.56 0 00-3.862-10.279"/><path fill="var(--color1, #3fa9f5)" d="M19.328 14.945c1.828 0 3.314-1.487 3.314-3.314s-1.487-3.315-3.314-3.315c-1.828 0-3.315 1.487-3.315 3.315s1.487 3.314 3.315 3.314zm0-5.885a2.573 2.573 0 012.57 2.57 2.573 2.573 0 01-2.57 2.57c-1.418 0-2.571-1.153-2.571-2.57s1.154-2.57 2.571-2.57zm.021 7.225c-3.126 0-5.582 2.543-5.582 5.668v.372H24.93v-.372c0-3.126-2.455-5.668-5.581-5.668zm-4.931 5.296c.191-2.543 2.32-4.552 4.911-4.552s4.72 2.01 4.91 4.552h-9.821zm-3.142-5.171c1.493 0 2.708-1.215 2.708-2.708s-1.215-2.708-2.708-2.708c-1.494 0-2.709 1.215-2.709 2.708s1.215 2.709 2.709 2.709zm0-4.672a1.966 1.966 0 011.964 1.964 1.968 1.968 0 01-1.964 1.965 1.967 1.967 0 01-1.965-1.965 1.966 1.966 0 011.965-1.964zM6.698 21.953v.372h5.581v-.744H7.458c.178-2.006 1.78-3.528 3.795-3.528.761 0 1.39.153 1.923.467l.378-.641c-.65-.383-1.403-.57-2.301-.57-2.555 0-4.556 2.04-4.556 4.644z"/></symbol></defs></svg>